<!-- <svg width="18" height="20" viewBox="0 0 18 20" fill="#FF6464" xmlns="http://www.w3.org/2000/svg">
<path d="M4 4V1C4 0.734784 4.10536 0.48043 4.29289 0.292893C4.48043 0.105357 4.73478 0 5 0H17C17.2652 0 17.5196 0.105357 17.7071 0.292893C17.8946 0.48043 18 0.734784 18 1V15C18 15.2652 17.8946 15.5196 17.7071 15.7071C17.5196 15.8946 17.2652 16 17 16H14V19C14 19.552 13.55 20 12.993 20H1.007C0.875127 20.0008 0.744397 19.9755 0.622322 19.9256C0.500247 19.8757 0.389233 19.8022 0.295659 19.7093C0.202084 19.6164 0.127793 19.5059 0.0770543 19.3841C0.0263156 19.2624 0.000129374 19.1319 0 19L0.00300002 5C0.00300002 4.448 0.453 4 1.01 4H4ZM2.50287 6C2.22678 6 2.00294 6.22378 2.00287 6.49988L2.00012 17.4999C2.00006 17.7761 2.22393 18 2.50012 18H11.5C11.7761 18 12 17.7761 12 17.5V6.5C12 6.22386 11.7761 6 11.5 6H2.50287ZM6 4H13C13.5523 4 14 4.44772 14 5V14H15.5C15.7761 14 16 13.7761 16 13.5V2.5C16 2.22386 15.7761 2 15.5 2H6.5C6.22386 2 6 2.22386 6 2.5V4Z" />
</svg> -->

<svg xmlns="http://www.w3.org/2000/svg" fill="none" viewBox="0 0 24 24" stroke-width="1.5" stroke="#ff6464" class="size-6">
  <path stroke-linecap="round" stroke-linejoin="round" d="M11.35 3.836c-.065.21-.1.433-.1.664 0 .414.336.75.75.75h4.5a.75.75 0 0 0 .75-.75 2.25 2.25 0 0 0-.1-.664m-5.8 0A2.251 2.251 0 0 1 13.5 2.25H15c1.012 0 1.867.668 2.15 1.586m-5.8 0c-.376.023-.75.05-1.124.08C9.095 4.01 8.25 4.973 8.25 6.108V8.25m8.9-4.414c.376.023.75.05 1.124.08 1.131.094 1.976 1.057 1.976 2.192V16.5A2.25 2.25 0 0 1 18 18.75h-2.25m-7.5-10.5H4.875c-.621 0-1.125.504-1.125 1.125v11.25c0 .621.504 1.125 1.125 1.125h9.75c.621 0 1.125-.504 1.125-1.125V18.75m-7.5-10.5h6.375c.621 0 1.125.504 1.125 1.125v9.375m-8.25-3 1.5 1.5 3-3.75" />
</svg>
