<svg width="1000" height="1000" viewBox="0 0 1000 1000" fill="none" xmlns="http://www.w3.org/2000/svg">
<rect width="1000" height="1000" fill="white"/>
<path d="M350 463.333H650C659.167 463.333 666.667 470.833 666.667 480C666.667 489.167 659.167 496.667 650 496.667H350C340.833 496.667 333.333 489.167 333.333 480C333.333 470.833 340.833 463.333 350 463.333ZM341.667 389.5C347.667 393 355.333 390.833 358.833 384.833L366.667 371.167L374.667 385C378.167 391 385.833 393 391.833 389.667C397.833 386.167 399.833 378.667 396.5 372.667L388.333 358.667H404.167C411 358.667 416.667 353 416.667 346.167C416.667 339.333 411 333.667 404.167 333.667H388.333L396.167 320C399.667 314 397.667 306.333 391.667 302.833C388.762 301.217 385.341 300.8 382.133 301.672C378.925 302.544 376.186 304.635 374.5 307.5L366.667 321.167L358.833 307.5C357.147 304.635 354.408 302.544 351.2 301.672C347.992 300.8 344.571 301.217 341.667 302.833C335.667 306.333 333.667 314 337.167 320L345 333.667H329.167C322.333 333.667 316.667 339.333 316.667 346.167C316.667 353 322.333 358.667 329.167 358.667H345L337 372.5C333.667 378.5 335.667 386.167 341.667 389.5ZM475 389.5C481 393 488.667 390.833 492.167 384.833L500 371.167L508 385C511.5 391 519.167 393 525.167 389.667C531.167 386.167 533.167 378.667 529.833 372.667L521.833 358.833H537.667C544.5 358.833 550.167 353.167 550.167 346.333C550.167 339.5 544.5 333.833 537.667 333.833H521.667L529.5 320.167C531.148 317.286 531.6 313.874 530.759 310.664C529.917 307.453 527.849 304.701 525 303C523.588 302.179 522.029 301.644 520.41 301.426C518.792 301.208 517.146 301.311 515.568 301.729C513.989 302.146 512.508 302.871 511.21 303.861C509.911 304.852 508.82 306.088 508 307.5L500 321.167L492.167 307.5C491.352 306.082 490.265 304.839 488.967 303.843C487.669 302.848 486.187 302.12 484.606 301.702C483.025 301.283 481.376 301.182 479.756 301.405C478.136 301.628 476.576 302.17 475.167 303C469.167 306.5 467.167 314.167 470.667 320.167L478.5 333.833H462.5C460.866 333.811 459.245 334.114 457.729 334.724C456.213 335.334 454.834 336.239 453.671 337.386C452.508 338.534 451.585 339.901 450.954 341.408C450.324 342.915 450 344.533 450 346.167C450 353 455.667 358.667 462.5 358.667H478.333L470.333 372.5C467 378.5 469 386.167 475 389.5V389.5ZM683.333 346.167C683.333 339.333 677.667 333.667 670.833 333.667H655L662.833 320C664.482 317.12 664.934 313.707 664.092 310.497C663.251 307.287 661.183 304.535 658.333 302.833C656.922 302.012 655.362 301.478 653.744 301.259C652.125 301.041 650.48 301.144 648.901 301.562C647.322 301.98 645.842 302.705 644.543 303.695C643.245 304.685 642.154 305.921 641.333 307.333L633.333 321.167L625.5 307.5C624.686 306.082 623.598 304.839 622.3 303.843C621.003 302.848 619.52 302.12 617.939 301.702C616.358 301.283 614.71 301.182 613.089 301.405C611.469 301.628 609.909 302.17 608.5 303C602.5 306.5 600.5 314.167 604 320.167L611.833 333.833H596C594.354 333.796 592.717 334.086 591.186 334.689C589.654 335.291 588.257 336.193 587.078 337.341C585.898 338.489 584.96 339.861 584.317 341.377C583.674 342.892 583.339 344.521 583.333 346.167C583.333 353 589 358.667 595.833 358.667H611.667L603.667 372.5C602.839 373.918 602.303 375.487 602.09 377.115C601.876 378.744 601.991 380.398 602.425 381.981C602.86 383.565 603.606 385.045 604.621 386.336C605.635 387.628 606.898 388.703 608.333 389.5C614.333 393 622 390.833 625.5 384.833L633.333 371.167L641.333 385C644.833 391 652.5 393 658.5 389.667C664.5 386.167 666.5 378.667 663.167 372.667L655.167 358.833H671C677.667 358.667 683.333 353 683.333 346.167Z" fill="#FF6464"/>
<path d="M271 762C260.2 762 251.933 758.933 246.2 752.8C240.467 746.667 237.6 738 237.6 726.8V653.2C237.6 642 240.467 633.333 246.2 627.2C251.933 621.067 260.2 618 271 618C281.8 618 290.067 621.067 295.8 627.2C301.533 633.333 304.4 642 304.4 653.2V726.8C304.4 738 301.533 746.667 295.8 752.8C290.067 758.933 281.8 762 271 762ZM271 742C278.6 742 282.4 737.4 282.4 728.2V651.8C282.4 642.6 278.6 638 271 638C263.4 638 259.6 642.6 259.6 651.8V728.2C259.6 737.4 263.4 742 271 742ZM319.278 620H346.878L368.278 703.8H368.678V620H388.278V760H365.678L339.278 657.8H338.878V760H319.278V620ZM404.63 620H464.63V640H426.63V677H456.83V697H426.63V740H464.63V760H404.63V620Z" fill="#FF6464"/>
<path d="M477.286 620H509.686C520.619 620 528.819 622.933 534.286 628.8C539.753 634.667 542.486 643.267 542.486 654.6V668.4C542.486 679.733 539.753 688.333 534.286 694.2C528.819 700.067 520.619 703 509.686 703H499.286V760H477.286V620ZM509.686 683C513.286 683 515.953 682 517.686 680C519.553 678 520.486 674.6 520.486 669.8V653.2C520.486 648.4 519.553 645 517.686 643C515.953 641 513.286 640 509.686 640H499.286V683H509.686ZM564.403 620H594.203L617.003 760H595.003L591.003 732.2V732.6H566.003L562.003 760H541.603L564.403 620ZM588.403 713.6L578.603 644.4H578.203L568.603 713.6H588.403ZM655.691 762C645.024 762 636.957 759 631.491 753C626.024 746.867 623.291 738.133 623.291 726.8V718.8H644.091V728.4C644.091 737.467 647.891 742 655.491 742C659.224 742 662.024 740.933 663.891 738.8C665.891 736.533 666.891 732.933 666.891 728C666.891 722.133 665.557 717 662.891 712.6C660.224 708.067 655.291 702.667 648.091 696.4C639.024 688.4 632.691 681.2 629.091 674.8C625.491 668.267 623.691 660.933 623.691 652.8C623.691 641.733 626.491 633.2 632.091 627.2C637.691 621.067 645.824 618 656.491 618C667.024 618 674.957 621.067 680.291 627.2C685.757 633.2 688.491 641.867 688.491 653.2V659H667.691V651.8C667.691 647 666.757 643.533 664.891 641.4C663.024 639.133 660.291 638 656.691 638C649.357 638 645.691 642.467 645.691 651.4C645.691 656.467 647.024 661.2 649.691 665.6C652.491 670 657.491 675.333 664.691 681.6C673.891 689.6 680.224 696.867 683.691 703.4C687.157 709.933 688.891 717.6 688.891 726.4C688.891 737.867 686.024 746.667 680.291 752.8C674.691 758.933 666.491 762 655.691 762ZM730.105 762C719.438 762 711.371 759 705.905 753C700.438 746.867 697.705 738.133 697.705 726.8V718.8H718.505V728.4C718.505 737.467 722.305 742 729.905 742C733.638 742 736.438 740.933 738.305 738.8C740.305 736.533 741.305 732.933 741.305 728C741.305 722.133 739.971 717 737.305 712.6C734.638 708.067 729.705 702.667 722.505 696.4C713.438 688.4 707.105 681.2 703.505 674.8C699.905 668.267 698.105 660.933 698.105 652.8C698.105 641.733 700.905 633.2 706.505 627.2C712.105 621.067 720.238 618 730.905 618C741.438 618 749.371 621.067 754.705 627.2C760.171 633.2 762.905 641.867 762.905 653.2V659H742.105V651.8C742.105 647 741.171 643.533 739.305 641.4C737.438 639.133 734.705 638 731.105 638C723.771 638 720.105 642.467 720.105 651.4C720.105 656.467 721.438 661.2 724.105 665.6C726.905 670 731.905 675.333 739.105 681.6C748.305 689.6 754.638 696.867 758.105 703.4C761.571 709.933 763.305 717.6 763.305 726.4C763.305 737.867 760.438 746.667 754.705 752.8C749.105 758.933 740.905 762 730.105 762Z" fill="#545974"/>
</svg>
