<!-- <svg viewBox="0 0 18 21" fill="#545974" xmlns="http://www.w3.org/2000/svg">
<path d="M15 7H17C17.2652 7 17.5196 7.10536 17.7071 7.29289C17.8946 7.48043 18 7.73478 18 8V20C18 20.2652 17.8946 20.5196 17.7071 20.7071C17.5196 20.8946 17.2652 21 17 21H1C0.734784 21 0.48043 20.8946 0.292893 20.7071C0.105357 20.5196 0 20.2652 0 20V8C0 7.73478 0.105357 7.48043 0.292893 7.29289C0.48043 7.10536 0.734784 7 1 7H3V6C3 4.4087 3.63214 2.88258 4.75736 1.75736C5.88258 0.632141 7.4087 0 9 0C10.5913 0 12.1174 0.632141 13.2426 1.75736C14.3679 2.88258 15 4.4087 15 6V7ZM2.5 9C2.22386 9 2 9.22386 2 9.5V18.5C2 18.7761 2.22386 19 2.5 19H15.5C15.7761 19 16 18.7761 16 18.5V9.5C16 9.22386 15.7761 9 15.5 9H2.5ZM8 14C8 13.4477 8.44771 13 9 13C9.55229 13 10 13.4477 10 14C10 14.5523 9.55229 15 9 15C8.44771 15 8 14.5523 8 14ZM4 14C4 13.4477 4.44772 13 5 13C5.55228 13 6 13.4477 6 14C6 14.5523 5.55228 15 5 15C4.44772 15 4 14.5523 4 14ZM12 14C12 13.4477 12.4477 13 13 13C13.5523 13 14 13.4477 14 14C14 14.5523 13.5523 15 13 15C12.4477 15 12 14.5523 12 14ZM13 7V6C13 4.93913 12.5786 3.92172 11.8284 3.17157C11.0783 2.42143 10.0609 2 9 2C7.93913 2 6.92172 2.42143 6.17157 3.17157C5.42143 3.92172 5 4.93913 5 6V7H13Z"/>
</svg> -->

<svg xmlns="http://www.w3.org/2000/svg" fill="none" viewBox="0 0 24 24" stroke-width="1.5" stroke="#545974" class="size-6">
  <path stroke-linecap="round" stroke-linejoin="round" d="M16.5 10.5V6.75a4.5 4.5 0 1 0-9 0v3.75m-.75 11.25h10.5a2.25 2.25 0 0 0 2.25-2.25v-6.75a2.25 2.25 0 0 0-2.25-2.25H6.75a2.25 2.25 0 0 0-2.25 2.25v6.75a2.25 2.25 0 0 0 2.25 2.25Z" />
</svg>
