<!-- <svg xmlns="http://www.w3.org/2000/svg" viewBox="0 0 24 24" fill="#FF6464"><path d="M5 22C4.44772 22 4 21.5523 4 21V3C4 2.44772 4.44772 2 5 2H19C19.5523 2 20 2.44772 20 3V6H18V4H6V20H18V18H20V21C20 21.5523 19.5523 22 19 22H5ZM18 16V13H11V11H18V8L23 12L18 16Z"></path></svg> -->

<svg xmlns="http://www.w3.org/2000/svg" fill="none" viewBox="0 0 24 24" stroke-width="1.5" stroke="#ff6464" class="size-6">
  <path stroke-linecap="round" stroke-linejoin="round" d="M8.25 9V5.25A2.25 2.25 0 0 1 10.5 3h6a2.25 2.25 0 0 1 2.25 2.25v13.5A2.25 2.25 0 0 1 16.5 21h-6a2.25 2.25 0 0 1-2.25-2.25V15m-3 0-3-3m0 0 3-3m-3 3H15" />
</svg>
