<svg width="527" height="144" viewBox="0 0 527 144" fill="none" xmlns="http://www.w3.org/2000/svg">
<path d="M34 144C23.2 144 14.9333 140.933 9.2 134.8C3.46667 128.667 0.6 120 0.6 108.8V35.2C0.6 24 3.46667 15.3333 9.2 9.19999C14.9333 3.06666 23.2 -7.62939e-06 34 -7.62939e-06C44.8 -7.62939e-06 53.0667 3.06666 58.8 9.19999C64.5333 15.3333 67.4 24 67.4 35.2V108.8C67.4 120 64.5333 128.667 58.8 134.8C53.0667 140.933 44.8 144 34 144ZM34 124C41.6 124 45.4 119.4 45.4 110.2V33.8C45.4 24.6 41.6 20 34 20C26.4 20 22.6 24.6 22.6 33.8V110.2C22.6 119.4 26.4 124 34 124ZM82.2781 1.99999H109.878L131.278 85.8H131.678V1.99999H151.278V142H128.678L102.278 39.8H101.878V142H82.2781V1.99999ZM167.63 1.99999H227.63V22H189.63V59H219.83V79H189.63V122H227.63V142H167.63V1.99999Z" fill="#FF6464"/>
<path d="M240.286 1.99999H272.686C283.619 1.99999 291.819 4.93333 297.286 10.8C302.753 16.6667 305.486 25.2667 305.486 36.6V50.4C305.486 61.7333 302.753 70.3333 297.286 76.2C291.819 82.0667 283.619 85 272.686 85H262.286V142H240.286V1.99999ZM272.686 65C276.286 65 278.953 64 280.686 62C282.553 60 283.486 56.6 283.486 51.8V35.2C283.486 30.4 282.553 27 280.686 25C278.953 23 276.286 22 272.686 22H262.286V65H272.686ZM327.403 1.99999H357.203L380.003 142H358.003L354.003 114.2V114.6H329.003L325.003 142H304.603L327.403 1.99999ZM351.403 95.6L341.603 26.4H341.203L331.603 95.6H351.403ZM418.691 144C408.024 144 399.957 141 394.491 135C389.024 128.867 386.291 120.133 386.291 108.8V100.8H407.091V110.4C407.091 119.467 410.891 124 418.491 124C422.224 124 425.024 122.933 426.891 120.8C428.891 118.533 429.891 114.933 429.891 110C429.891 104.133 428.557 99 425.891 94.6C423.224 90.0667 418.291 84.6667 411.091 78.4C402.024 70.4 395.691 63.2 392.091 56.8C388.491 50.2667 386.691 42.9333 386.691 34.8C386.691 23.7333 389.491 15.2 395.091 9.19999C400.691 3.06666 408.824 -7.62939e-06 419.491 -7.62939e-06C430.024 -7.62939e-06 437.957 3.06666 443.291 9.19999C448.757 15.2 451.491 23.8667 451.491 35.2V41H430.691V33.8C430.691 29 429.757 25.5333 427.891 23.4C426.024 21.1333 423.291 20 419.691 20C412.357 20 408.691 24.4667 408.691 33.4C408.691 38.4667 410.024 43.2 412.691 47.6C415.491 52 420.491 57.3333 427.691 63.6C436.891 71.6 443.224 78.8667 446.691 85.4C450.157 91.9333 451.891 99.6 451.891 108.4C451.891 119.867 449.024 128.667 443.291 134.8C437.691 140.933 429.491 144 418.691 144ZM493.105 144C482.438 144 474.371 141 468.905 135C463.438 128.867 460.705 120.133 460.705 108.8V100.8H481.505V110.4C481.505 119.467 485.305 124 492.905 124C496.638 124 499.438 122.933 501.305 120.8C503.305 118.533 504.305 114.933 504.305 110C504.305 104.133 502.971 99 500.305 94.6C497.638 90.0667 492.705 84.6667 485.505 78.4C476.438 70.4 470.105 63.2 466.505 56.8C462.905 50.2667 461.105 42.9333 461.105 34.8C461.105 23.7333 463.905 15.2 469.505 9.19999C475.105 3.06666 483.238 -7.62939e-06 493.905 -7.62939e-06C504.438 -7.62939e-06 512.371 3.06666 517.705 9.19999C523.171 15.2 525.905 23.8667 525.905 35.2V41H505.105V33.8C505.105 29 504.171 25.5333 502.305 23.4C500.438 21.1333 497.705 20 494.105 20C486.771 20 483.105 24.4667 483.105 33.4C483.105 38.4667 484.438 43.2 487.105 47.6C489.905 52 494.905 57.3333 502.105 63.6C511.305 71.6 517.638 78.8667 521.105 85.4C524.571 91.9333 526.305 99.6 526.305 108.4C526.305 119.867 523.438 128.667 517.705 134.8C512.105 140.933 503.905 144 493.105 144Z" fill="#545974"/>
</svg>
