<!-- <svg width="20" height="20" viewBox="0 0 20 20" fill="none" xmlns="http://www.w3.org/2000/svg">
<path d="M9 0C13.968 0 18 4.032 18 9C18 13.968 13.968 18 9 18C4.032 18 0 13.968 0 9C0 4.032 4.032 0 9 0ZM9 16C12.867 16 16 12.867 16 9C16 5.132 12.867 2 9 2C5.132 2 2 5.132 2 9C2 12.867 5.132 16 9 16ZM16.778 16.778C17.1685 16.3875 17.8016 16.3874 18.1921 16.7779L19.6066 18.1919C19.9973 18.5824 19.9971 19.2159 19.6065 19.6065C19.2159 19.9971 18.5824 19.9973 18.1919 19.6066L16.7779 18.1921C16.3875 17.8016 16.3875 17.1685 16.778 16.778Z" fill="#BABABA"/>
</svg> -->

<svg xmlns="http://www.w3.org/2000/svg" fill="none" viewBox="0 0 24 24" stroke-width="1.5" stroke="#BABABA" class="size-6">
  <path stroke-linecap="round" stroke-linejoin="round" d="m21 21-5.197-5.197m0 0A7.5 7.5 0 1 0 5.196 5.196a7.5 7.5 0 0 0 10.607 10.607Z" />
</svg>
