<svg width="368" height="196" viewBox="0 0 368 196" fill="none" xmlns="http://www.w3.org/2000/svg">
<path d="M33.9998 162.333H334C343.167 162.333 350.667 169.833 350.667 179C350.667 188.167 343.167 195.667 334 195.667H33.9998C24.8332 195.667 17.3332 188.167 17.3332 179C17.3332 169.833 24.8332 162.333 33.9998 162.333ZM25.6665 88.5C31.6665 92 39.3332 89.8333 42.8332 83.8333L50.6665 70.1667L58.6665 84C62.1665 90 69.8332 92 75.8332 88.6667C81.8332 85.1667 83.8332 77.6667 80.4998 71.6667L72.3332 57.6667H88.1665C94.9998 57.6667 100.667 52 100.667 45.1667C100.667 38.3333 94.9998 32.6667 88.1665 32.6667H72.3332L80.1665 19C83.6665 13 81.6665 5.33333 75.6665 1.83333C72.7621 0.216608 69.3407 -0.200294 66.1331 0.67168C62.9255 1.54365 60.186 3.63537 58.4998 6.5L50.6665 20.1667L42.8332 6.5C41.147 3.63537 38.4076 1.54365 35.1999 0.67168C31.9923 -0.200294 28.5709 0.216608 25.6665 1.83333C19.6665 5.33333 17.6665 13 21.1665 19L28.9998 32.6667H13.1665C6.33317 32.6667 0.666504 38.3333 0.666504 45.1667C0.666504 52 6.33317 57.6667 13.1665 57.6667H28.9998L20.9998 71.5C17.6665 77.5 19.6665 85.1667 25.6665 88.5ZM159 88.5C165 92 172.667 89.8333 176.167 83.8333L184 70.1667L192 84C195.5 90 203.167 92 209.167 88.6667C215.167 85.1667 217.167 77.6667 213.833 71.6667L205.833 57.8333H221.667C228.5 57.8333 234.167 52.1667 234.167 45.3333C234.167 38.5 228.5 32.8333 221.667 32.8333H205.667L213.5 19.1667C215.148 16.2862 215.6 12.8738 214.759 9.66353C213.917 6.45323 211.849 3.70144 209 2C207.588 1.17904 206.029 0.644205 204.41 0.426053C202.792 0.207902 201.146 0.310705 199.568 0.728583C197.989 1.14646 196.508 1.87123 195.21 2.8615C193.911 3.85177 192.82 5.08814 192 6.5L184 20.1667L176.167 6.5C175.352 5.08156 174.265 3.83871 172.967 2.84342C171.669 1.84812 170.187 1.12014 168.606 0.701625C167.025 0.283109 165.376 0.182373 163.756 0.405239C162.136 0.628106 160.576 1.17015 159.167 2C153.167 5.5 151.167 13.1667 154.667 19.1667L162.5 32.8333H146.5C144.866 32.8112 143.245 33.114 141.729 33.7239C140.213 34.3338 138.834 35.2388 137.671 36.3862C136.508 37.5337 135.585 38.9008 134.954 40.4081C134.324 41.9154 134 43.5329 134 45.1667C134 52 139.667 57.6667 146.5 57.6667H162.333L154.333 71.5C151 77.5 153 85.1667 159 88.5V88.5ZM367.333 45.1667C367.333 38.3333 361.667 32.6667 354.833 32.6667H339L346.833 19C348.482 16.1195 348.934 12.7072 348.092 9.49687C347.251 6.28657 345.183 3.53477 342.333 1.83333C340.922 1.01237 339.362 0.477542 337.744 0.259391C336.125 0.0412392 334.48 0.144034 332.901 0.561912C331.322 0.97979 329.842 1.70456 328.543 2.69483C327.245 3.6851 326.154 4.92147 325.333 6.33333L317.333 20.1667L309.5 6.5C308.686 5.08156 307.598 3.83871 306.3 2.84342C305.003 1.84812 303.52 1.12014 301.939 0.701625C300.358 0.283109 298.71 0.182373 297.089 0.405239C295.469 0.628106 293.909 1.17015 292.5 2C286.5 5.5 284.5 13.1667 288 19.1667L295.833 32.8333H280C278.354 32.7956 276.717 33.0865 275.186 33.6888C273.654 34.2911 272.257 35.1927 271.078 36.3411C269.898 37.4895 268.96 38.8615 268.317 40.3768C267.674 41.8922 267.339 43.5206 267.333 45.1667C267.333 52 273 57.6667 279.833 57.6667H295.667L287.667 71.5C286.839 72.9182 286.303 74.4873 286.09 76.1154C285.876 77.7435 285.991 79.3978 286.425 80.9813C286.86 82.5647 287.606 84.0454 288.621 85.3365C289.635 86.6276 290.898 87.7031 292.333 88.5C298.333 92 306 89.8333 309.5 83.8333L317.333 70.1667L325.333 84C328.833 90 336.5 92 342.5 88.6667C348.5 85.1667 350.5 77.6667 347.167 71.6667L339.167 57.8333H355C361.667 57.6667 367.333 52 367.333 45.1667Z" fill="#FF6464"/>
</svg>
